<svg width="0" height="0" class="hidden">
  <symbol fill="none" xmlns="http://www.w3.org/2000/svg" viewBox="0 0 16 16" id="checked ">
    <path fill-rule="evenodd" clip-rule="evenodd" d="M8 16C12.4183 16 16 12.4183 16 8C16 3.58172 12.4183 0 8 0C3.58172 0 0 3.58172 0 8C0 12.4183 3.58172 16 8 16Z" fill="#2E5BFF"></path>
    <path fill-rule="evenodd" clip-rule="evenodd" d="M11.8775 6.15369L7.09155 10.9675C6.78331 11.2775 6.2843 11.2775 5.97685 10.9675L3.97766 8.95743C3.67021 8.6474 3.67021 8.14549 3.97766 7.83546C4.28589 7.52622 4.7849 7.52622 5.09235 7.83546L6.5342 9.2857L10.7628 5.03251C11.0702 4.72248 11.5692 4.72248 11.8775 5.03251C12.1857 5.34175 12.1857 5.84366 11.8775 6.15369Z" fill="white"></path>
  </symbol>
  <symbol fill="none" xmlns="http://www.w3.org/2000/svg" viewBox="0 0 24 24" id="clear">
    <path d="M19.6449 10.0047C19.387 9.88994 16.972 8.8149 16.7132 8.70016C15.4988 8.15956 14.0765 8.70632 13.5366 9.91997L20.8647 13.1813C21.4053 11.9669 20.8586 10.5445 19.6449 10.0047ZM21.4161 2.07743C21.0111 1.89723 20.5806 1.94343 20.4489 2.19063L16.9403 8.8011L19.3076 9.85381L21.9798 2.87138C22.0753 2.60802 21.8212 2.25763 21.4161 2.07743Z" stroke="#B2B7C1" stroke-width="1.4" stroke-linecap="round" stroke-linejoin="round"></path>
    <path d="M19.6772 14.2178C18.1732 18.7967 16.2264 21.167 16.2264 21.167C16.2264 21.167 9.52132 20.9237 5.17188 15.5546C6.06979 15.6186 11.6675 15.1373 13.5958 11.4185" stroke="#B2B7C1" stroke-width="1.4" stroke-linecap="round" stroke-linejoin="round"></path>
    <path d="M7.77051 18.0255C7.77051 18.0255 9.89439 17.7455 11.0341 16.5549C10.1223 18.2268 9.03653 18.861 9.03653 18.861L7.77051 18.0255ZM10.7646 19.6996C10.7646 19.6996 12.4349 19.7184 15.2765 17.1009C14.2546 19.4312 12.922 20.5622 12.922 20.5622L10.7646 19.6996Z" stroke="#B2B7C1" stroke-width="1.4" stroke-linecap="round" stroke-linejoin="round"></path>
    <path d="M3.20337 9.04437C3.27136 9.0162 3.34423 9.00171 3.41782 9.00171C3.49142 9.00171 3.56429 9.0162 3.63228 9.04437C3.70027 9.07253 3.76205 9.11381 3.81409 9.16585C3.86612 9.21788 3.9074 9.27966 3.93557 9.34765C3.96373 9.41564 3.97822 9.48852 3.97822 9.56211C3.97822 9.6357 3.96373 9.70858 3.93557 9.77657C3.9074 9.84456 3.86612 9.90634 3.81409 9.95837C3.76205 10.0104 3.70027 10.0517 3.63228 10.0799C3.56429 10.108 3.49142 10.1225 3.41782 10.1225C3.34423 10.1225 3.27136 10.108 3.20337 10.0799C3.13538 10.0517 3.0736 10.0104 3.02156 9.95837C2.96952 9.90634 2.92824 9.84456 2.90008 9.77657C2.87192 9.70858 2.85742 9.6357 2.85742 9.56211C2.85742 9.48852 2.87192 9.41564 2.90008 9.34765C2.92824 9.27966 2.96952 9.21788 3.02156 9.16585C3.0736 9.11381 3.13538 9.07253 3.20337 9.04437Z" fill="#B2B7C1"></path>
    <path d="M4.83485 9.48473C4.90491 9.41467 4.99994 9.37531 5.09903 9.37531C5.19811 9.37531 5.29314 9.41467 5.3632 9.48473C5.43327 9.5548 5.47263 9.64983 5.47263 9.74891C5.47263 9.848 5.43327 9.94302 5.3632 10.0131C5.29314 10.0831 5.19811 10.1225 5.09903 10.1225C4.99994 10.1225 4.90491 10.0831 4.83485 10.0131C4.76479 9.94302 4.72543 9.848 4.72543 9.74891C4.72543 9.64983 4.76479 9.5548 4.83485 9.48473Z" fill="#B2B7C1"></path>
    <path d="M4.25179 11.1433C4.42695 10.9681 4.66451 10.8697 4.91223 10.8697C5.15994 10.8697 5.39751 10.9681 5.57266 11.1433C5.74782 11.3184 5.84623 11.556 5.84623 11.8037C5.84623 12.0514 5.74782 12.289 5.57266 12.4642C5.39751 12.6393 5.15994 12.7377 4.91223 12.7377C4.66451 12.7377 4.42695 12.6393 4.25179 12.4642C4.07663 12.289 3.97822 12.0514 3.97822 11.8037C3.97822 11.556 4.07663 11.3184 4.25179 11.1433Z" fill="#B2B7C1"></path>
  </symbol>
  <symbol fill="none" xmlns="http://www.w3.org/2000/svg" viewBox="0 0 28 28" id="close">
    <path d="M21 7L7 21" stroke="#B2B7C1" stroke-width="2" stroke-linecap="round" stroke-linejoin="round"></path>
    <path d="M7 7L21 21" stroke="#B2B7C1" stroke-width="2" stroke-linecap="round" stroke-linejoin="round"></path>
  </symbol>
  <symbol fill="none" xmlns="http://www.w3.org/2000/svg" viewBox="0 0 22 22" id="down">
    <path d="M15.8521 7.60181C16.2101 7.24383 16.7905 7.24383 17.1485 7.60181C17.5065 7.95979 17.5065 8.54019 17.1485 8.89817L11.6485 14.3982C11.3015 14.7452 10.7427 14.7573 10.3809 14.4257L4.88091 9.38405C4.50772 9.04195 4.48251 8.4621 4.8246 8.08891C5.16669 7.71572 5.74655 7.6905 6.11974 8.0326L10.9728 12.4812L15.8521 7.60181Z" fill="#B5B5C3"></path>
  </symbol>
  <symbol fill="none" xmlns="http://www.w3.org/2000/svg" viewBox="0 0 24 24" id="eye">
    <path opacity="0.4" d="M23.855 11.3917C21.5954 6.98292 17.1221 4 12 4C6.87789 4 2.40331 6.985 0.144977 11.3921C0.0496613 11.5806 0 11.7889 0 12.0002C0 12.2115 0.0496613 12.4198 0.144977 12.6083C2.40456 17.0171 6.87789 20 12 20C17.1221 20 21.5966 17.015 23.855 12.6079C23.9503 12.4194 24 12.2111 24 11.9998C24 11.7885 23.9503 11.5802 23.855 11.3917ZM12.0058 18H12C10.4097 17.9992 8.88485 17.3669 7.76077 16.2419C6.63669 15.117 6.00542 13.5917 6.00581 12.0015C6.0062 10.4112 6.6382 8.88618 7.76283 7.76182C8.88746 6.63747 10.4126 6.00583 12.0029 6.00583C13.5932 6.00583 15.1183 6.63747 16.243 7.76182C17.3676 8.88618 17.9996 10.4112 18 12.0015C18.0004 13.5917 17.3691 15.117 16.245 16.2419C15.1209 17.3669 13.5961 17.9992 12.0058 18Z" fill="#3366FF"></path>
    <path d="M15.8608 13.0363C15.7247 13.5433 15.4899 14.0186 15.1698 14.4347C14.8497 14.8509 14.4506 15.1998 13.9955 15.4614C13.5403 15.7231 13.038 15.8924 12.5173 15.9596C11.9966 16.0268 11.4677 15.9906 10.961 15.853C10.4544 15.7155 9.97979 15.4794 9.56452 15.1581C9.14926 14.8368 8.80147 14.4368 8.54107 13.9809C8.28068 13.525 8.11279 13.0222 8.04704 12.5013C7.98129 11.9805 8.01897 11.4517 8.15791 10.9454C8.54194 11.228 9.01453 11.3636 9.48997 11.3277C9.96541 11.2917 10.4122 11.0865 10.7494 10.7494C11.0865 10.4122 11.2917 9.96542 11.3276 9.48998C11.3636 9.01454 11.228 8.54195 10.9454 8.15792C11.6237 7.96431 12.3412 7.95486 13.0243 8.13054C13.7075 8.30621 14.3314 8.66067 14.8321 9.15747C15.3328 9.65426 15.6922 10.2755 15.8732 10.9572C16.0542 11.6389 16.0504 12.3565 15.8621 13.0363H15.8608Z" fill="#3366FF"></path>
  </symbol>
  <symbol fill="none" xmlns="http://www.w3.org/2000/svg" viewBox="0 0 14 14" id="filter">
    <path d="M11.6668 0.333336H2.3335C1.80306 0.333336 1.29436 0.54405 0.919283 0.919122C0.54421 1.2942 0.333496 1.8029 0.333496 2.33334V3.11334C0.333401 3.38863 0.39014 3.66098 0.500163 3.91334V3.95334C0.594349 4.16732 0.727758 4.36178 0.893496 4.52667L5.00016 8.60667V13C4.99994 13.1133 5.02859 13.2248 5.08341 13.3239C5.13823 13.4231 5.21742 13.5066 5.3135 13.5667C5.41959 13.6324 5.54201 13.6671 5.66683 13.6667C5.77119 13.666 5.87395 13.6409 5.96683 13.5933L8.6335 12.26C8.74344 12.2046 8.83589 12.1198 8.90061 12.0151C8.96533 11.9104 8.99979 11.7898 9.00016 11.6667V8.60667L13.0802 4.52667C13.2459 4.36178 13.3793 4.16732 13.4735 3.95334V3.91334C13.5927 3.66296 13.6585 3.39052 13.6668 3.11334V2.33334C13.6668 1.8029 13.4561 1.2942 13.081 0.919122C12.706 0.54405 12.1973 0.333336 11.6668 0.333336ZM7.86016 7.86C7.79838 7.9223 7.74949 7.99617 7.71632 8.0774C7.68314 8.15862 7.66632 8.2456 7.66683 8.33334V11.2533L6.3335 11.92V8.33334C6.334 8.2456 6.31719 8.15862 6.28401 8.0774C6.25083 7.99617 6.20195 7.9223 6.14016 7.86L2.60683 4.33334H11.3935L7.86016 7.86ZM12.3335 3H1.66683V2.33334C1.66683 2.15652 1.73707 1.98696 1.86209 1.86193C1.98712 1.73691 2.15669 1.66667 2.3335 1.66667H11.6668C11.8436 1.66667 12.0132 1.73691 12.1382 1.86193C12.2633 1.98696 12.3335 2.15652 12.3335 2.33334V3Z" fill="#3365FC"></path>
  </symbol>
  <symbol fill="none" xmlns="http://www.w3.org/2000/svg" viewBox="0 0 32 32" id="log-out">
    <path d="M10 16C10 15.7348 10.1054 15.4804 10.2929 15.2929C10.4804 15.1054 10.7348 15 11 15H20V8.5C20 6.5 17.8881 5 16 5H6.5C5.57205 5.00099 4.68238 5.37006 4.02622 6.02622C3.37006 6.68238 3.00099 7.57205 3 8.5V23.5C3.00099 24.428 3.37006 25.3176 4.02622 25.9738C4.68238 26.6299 5.57205 26.999 6.5 27H16.5C17.428 26.999 18.3176 26.6299 18.9738 25.9738C19.6299 25.3176 19.999 24.428 20 23.5V17H11C10.7348 17 10.4804 16.8946 10.2929 16.7071C10.1054 16.5196 10 16.2652 10 16Z" fill="#B1B1B8"></path>
    <path d="M28.7069 15.2931L23.7069 10.2931C23.5178 10.1135 23.2661 10.0148 23.0053 10.0182C22.7445 10.0215 22.4954 10.1266 22.311 10.311C22.1266 10.4954 22.0215 10.7445 22.0182 11.0053C22.0148 11.2661 22.1135 11.5178 22.2931 11.7069L25.5856 15H20V17H25.5856L22.2931 20.2931C22.1964 20.3851 22.119 20.4954 22.0655 20.6177C22.0121 20.7401 21.9837 20.8718 21.982 21.0053C21.9803 21.1388 22.0053 21.2712 22.0556 21.3949C22.1059 21.5185 22.1804 21.6308 22.2748 21.7252C22.3692 21.8196 22.4815 21.8941 22.6051 21.9444C22.7288 21.9947 22.8612 22.0197 22.9947 22.018C23.1282 22.0163 23.2599 21.9879 23.3822 21.9345C23.5046 21.881 23.6149 21.8036 23.7069 21.7069L28.7069 16.7069C28.8943 16.5194 28.9995 16.2651 28.9995 16C28.9995 15.7349 28.8943 15.4806 28.7069 15.2931Z" fill="#B1B1B8"></path>
  </symbol>
  <symbol fill="none" xmlns="http://www.w3.org/2000/svg" viewBox="0 0 173 24" id="logo-pro">
    <path d="M40.3051 1.44823L42.4718 2.34273L59.9243 22.1408C60.5008 22.7968 60.0436 23.8304 59.169 23.8304H20.6064L40.3051 1.44823Z" fill="#2044A0"></path>
    <path d="M19.4736 23.8105H26.9675L42.5515 6.11946C44.1616 4.3106 42.8696 1.44823 40.4445 1.44823C39.6295 1.44823 38.8742 1.78615 38.3375 2.40235L19.4736 23.8105Z" fill="#C7DAFF"></path>
    <path d="M20.229 1.44823L22.3956 2.34272L41.3191 23.8105H0.530273L20.229 1.44823Z" fill="#3366FF"></path>
    <path d="M0.510312 23.8105H6.89102L22.4751 6.11946C24.0653 4.31059 22.7732 1.44822 20.3482 1.44822C19.5332 1.44822 18.7778 1.78614 18.2411 2.40234L0.132638 22.9757C-0.165526 23.2937 0.0730042 23.8105 0.510312 23.8105Z" fill="#C7DAFF"></path>
    <path d="M84.3826 5.60549L80.9637 12.7018H78.7374L75.2787 5.58561L74.2649 14.292H71.3628L73.0921 0.258411H75.4973L79.8307 9.46174L84.1242 0.258411H86.5692L88.2786 14.292H85.3964L84.3826 5.60549Z" fill="#28293D"></path>
    <path d="M74.1351 17.9088H71.6934V23.8957H72.9012V21.8016H74.1351C75.4906 21.8016 76.0902 20.8458 76.0902 19.8639C76.0902 18.8907 75.4906 17.9088 74.1351 17.9088ZM74.0742 20.7415H72.9012V18.9776H74.0916C74.6564 18.9776 74.8737 19.4294 74.8737 19.8639C74.8737 20.2896 74.6564 20.7415 74.0742 20.7415Z" fill="#00AE69"></path>
    <path d="M78.681 21.7495L80.1061 23.8957H81.5224L79.967 21.6886C80.975 21.4801 81.4182 20.7154 81.4182 19.8639C81.4182 18.8907 80.8273 17.9088 79.4544 17.9088H77.0648V23.8957H78.2726V21.7495H78.681ZM78.2726 20.7762V18.9776H79.3327C79.8975 18.9776 80.2017 19.4033 80.2017 19.8899C80.2017 20.3678 79.9236 20.7762 79.2371 20.7762H78.2726Z" fill="#00AE69"></path>
    <path d="M85.2399 24C86.9343 24 88.2898 22.6097 88.2898 20.9066C88.2898 19.2035 86.9343 17.8045 85.2399 17.8045C83.5367 17.8045 82.1986 19.2035 82.1986 20.9066C82.1986 22.6097 83.5367 24 85.2399 24ZM85.2399 22.8617C84.1624 22.8617 83.4064 21.9841 83.4064 20.9066C83.4064 19.8291 84.1624 18.9428 85.2399 18.9428C86.3173 18.9428 87.0733 19.8291 87.0733 20.9066C87.0733 21.9841 86.3173 22.8617 85.2399 22.8617Z" fill="#00AE69"></path>
    <path d="M99.9466 14.292H90.9619V0.258411H99.7677V2.76299H93.8044V6.10243H99.0322V8.64676H93.8044V11.7874H99.9665V14.292H99.9466Z" fill="#28293D"></path>
    <path d="M108.057 2.76299V14.292H105.234V2.76299H101.358V0.258411H111.933V2.76299H108.057Z" fill="#28293D"></path>
    <path d="M113.086 10.2171H115.909C115.928 11.211 116.902 12.0458 118.214 12.0458C119.506 12.0458 120.321 11.3501 120.321 10.3562C120.321 9.60088 119.725 9.02443 118.552 8.66663L116.843 8.16969C113.762 7.35471 113.225 5.48622 113.225 4.23393C113.225 1.70947 115.392 0 118.075 0C120.739 0 122.766 1.61009 122.766 4.27368H119.944C119.944 3.2798 119.248 2.50458 118.035 2.50458C116.922 2.50458 116.107 3.22017 116.107 4.1743C116.107 4.53209 116.207 5.22781 117.678 5.66512L119.248 6.1223C121.375 6.71863 123.224 7.8119 123.224 10.2171C123.224 12.9801 120.838 14.5305 118.194 14.5305C115.153 14.5305 113.086 12.6819 113.086 10.2171Z" fill="#28293D"></path>
    <path d="M134.713 14.292H125.728V0.258411H134.534V2.76299H128.571V6.10243H133.798V8.64676H128.571V11.7874H134.733V14.292H134.713Z" fill="#28293D"></path>
    <path d="M147.912 14.292H145.367L140.279 5.48622V14.292H137.456V0.258411H140.08L145.089 8.9648V0.258411H147.912V14.292Z" fill="#28293D"></path>
    <path d="M153.656 10.9327L152.543 14.292H149.521L154.749 0.258411H157.81L163.018 14.292H160.037L158.904 10.9327H153.656ZM156.26 3.2003L154.491 8.46786H158.049L156.26 3.2003Z" fill="#28293D"></path>
    <path d="M168.862 2.76299V14.292H166.04V2.76299H162.164V0.258411H172.738V2.76299H168.862Z" fill="#28293D"></path>
  </symbol>
  <symbol fill="none" xmlns="http://www.w3.org/2000/svg" viewBox="0 0 315 33" id="logo">
    <rect x="263.703" y="4.27048" width="51.2459" height="23.4877" rx="6.40574" fill="#E94A47"></rect>
    <path d="M277.535 20.6179C279.136 20.6179 280.34 19.8748 281.122 18.9011L279.982 17.9274C279.405 18.6449 278.559 19.1702 277.535 19.1702C275.805 19.1702 274.562 17.889 274.562 16.0185C274.562 14.0968 275.779 12.8029 277.509 12.8029C278.47 12.8029 279.277 13.2128 279.956 14.0456L281.096 13.0847C280.148 11.9189 278.841 11.3423 277.509 11.3423C274.588 11.3423 272.948 13.4306 272.948 16.0185C272.948 19.0036 275.062 20.6179 277.535 20.6179ZM282.691 20.541H288.457V19.1573H284.242V11.4448H282.691V20.541ZM293.27 20.6435C295.538 20.6435 296.908 19.1573 296.908 16.8V11.4448H295.358V16.6847C295.358 18.2477 294.487 19.183 293.27 19.183C291.963 19.183 291.194 18.1324 291.194 16.6847V11.4448H289.657V16.8C289.657 19.247 291.118 20.6435 293.27 20.6435ZM298.993 20.541H302.593C304.605 20.541 305.579 19.4904 305.579 18.0427C305.579 16.7872 304.835 15.9929 303.772 15.7367V15.7239C304.707 15.3523 305.117 14.5068 305.117 13.6612C305.117 12.1751 304.028 11.4448 302.158 11.4448H298.993V20.541ZM300.544 15.2114V12.8285L301.991 12.8157C303.055 12.8157 303.542 13.2897 303.542 14.0071C303.542 14.8655 302.914 15.2114 302.043 15.2114H300.544ZM300.544 19.1573V16.5438H302.158C303.362 16.5438 303.964 17.0691 303.964 17.8762C303.964 18.7346 303.362 19.1573 302.401 19.1573H300.544Z" fill="white"></path>
    <path d="M59.4254 0L62.6198 1.31883L88.3516 30.5089C89.2016 31.476 88.5275 33 87.238 33H30.3818L59.4254 0Z" fill="#2044A0"></path>
    <path d="M28.7114 32.9707H39.7603L62.7372 6.88721C65.1111 4.22025 63.2061 0 59.6306 0C58.429 0 57.3153 0.498224 56.524 1.40675L28.7114 32.9707Z" fill="#C7DAFF"></path>
    <path d="M29.8248 0L33.0193 1.31883L60.9198 32.9707H0.78125L29.8248 0Z" fill="#3366FF"></path>
    <path d="M0.752397 32.9707H10.16L33.1369 6.88721C35.4815 4.22025 33.5766 0 30.0011 0C28.7995 0 27.6858 0.498224 26.8945 1.40675L0.19556 31.7398C-0.244049 32.2087 0.107637 32.9707 0.752397 32.9707Z" fill="#C7DAFF"></path>
    <path d="M124.412 13.6028L119.371 24.0655H116.089L110.99 13.5735L109.495 26.4101H105.216L107.766 5.71913H111.312L117.701 19.2884L124.031 5.71913H127.636L130.157 26.4101H125.907L124.412 13.6028Z" fill="#28293D"></path>
    <path d="M147.36 26.4101H134.113V5.71913H147.096V9.41185H138.304V14.3355H146.012V18.0868H138.304V22.7174H147.389V26.4101H147.36Z" fill="#28293D"></path>
    <path d="M159.317 9.41185V26.4101H155.156V9.41185H149.441V5.71913H165.032V9.41185H159.317Z" fill="#28293D"></path>
    <path d="M166.732 20.4021H170.894C170.923 21.8674 172.359 23.0983 174.293 23.0983C176.198 23.0983 177.4 22.0726 177.4 20.6072C177.4 19.4936 176.521 18.6436 174.792 18.1161L172.271 17.3834C167.729 16.1818 166.937 13.4269 166.937 11.5806C166.937 7.85856 170.132 5.33813 174.088 5.33813C178.015 5.33813 181.005 7.71202 181.005 11.6392H176.843C176.843 10.1738 175.817 9.03085 174.03 9.03085C172.388 9.03085 171.187 10.0859 171.187 11.4927C171.187 12.0202 171.333 13.046 173.502 13.6907L175.817 14.3648C178.953 15.244 181.679 16.8559 181.679 20.4021C181.679 24.4758 178.162 26.7618 174.264 26.7618C169.78 26.7618 166.732 24.0362 166.732 20.4021Z" fill="#28293D"></path>
    <path d="M198.618 26.4101H185.371V5.71913H198.354V9.41185H189.562V14.3355H197.27V18.0868H189.562V22.7174H198.648V26.4101H198.618Z" fill="#28293D"></path>
    <path d="M218.078 26.4101H214.327L206.824 13.4269V26.4101H202.663V5.71913H206.531L213.917 18.5557V5.71913H218.078V26.4101Z" fill="#28293D"></path>
    <path d="M226.548 21.4571L224.907 26.4101H220.452L228.16 5.71913H232.673L240.352 26.4101H235.956L234.285 21.4571H226.548ZM230.387 10.0566L227.779 17.823H233.025L230.387 10.0566Z" fill="#28293D"></path>
    <path d="M248.968 9.41185V26.4101H244.806V9.41185H239.092V5.71913H254.683V9.41185H248.968Z" fill="#28293D"></path>
  </symbol>
  <symbol fill="none" xmlns="http://www.w3.org/2000/svg" viewBox="0 0 24 24" id="person">
    <path d="M16.621 17.38C15.243 18.118 13.669 18.54 11.998 18.54C10.328 18.54 8.755 18.12 7.377 17.38C4.401 18.162 2.069 20.015 1 24H23C21.931 20.014 19.599 18.161 16.621 17.38ZM12 16C16.418 16 20 12.418 20 8C20 3.582 16.418 0 12 0C7.582 0 4 3.582 4 8C4 12.418 7.582 16 12 16ZM17.349 10.667C16.364 12.635 14.351 14 12 14C9.649 14 7.636 12.635 6.651 10.667H17.349Z" fill="#F1F1F3"></path>
  </symbol>
  <symbol fill="none" xmlns="http://www.w3.org/2000/svg" viewBox="0 0 20 20" id="search">
    <g clip-path="url(#clip0_120_308)">
      <path d="M8.33333 14.1667C11.555 14.1667 14.1667 11.555 14.1667 8.33333C14.1667 5.11167 11.555 2.5 8.33333 2.5C5.11167 2.5 2.5 5.11167 2.5 8.33333C2.5 11.555 5.11167 14.1667 8.33333 14.1667Z" stroke="#B1B1B8" stroke-width="2" stroke-linecap="round" stroke-linejoin="round"></path>
      <path d="M17.5 17.5L12.5 12.5" stroke="#B1B1B8" stroke-width="2" stroke-linecap="round" stroke-linejoin="round"></path>
    </g>
    <defs>
      <clipPath id="clip0_120_308">
        <rect width="20" height="20" fill="white"></rect>
      </clipPath>
    </defs>
  </symbol>
</svg>